<svg width="515" height="515" viewBox="0 0 515 515" fill="none" xmlns="http://www.w3.org/2000/svg">
<rect width="515" height="515" rx="257.5" fill="black"/>
<path d="M499.22 265L359.725 273.619C348.774 275.67 341.09 277.273 329.905 279.673L312.43 285.858C304.764 289.365 297.256 293.458 291.505 299.757C285.902 305.895 283.871 314.562 286.153 322.604L286.944 325.439C287.697 327.397 287.836 327.693 288.781 329.355L309.1 365.079L289.782 342.9C285.016 337.427 278.775 333.492 271.83 331.581C264.847 329.66 257.405 329.546 250.357 331.206C241.123 333.38 232.08 336.796 223.707 341.307L201.701 353.165L87.3887 430.508L257.449 301.538C259.933 299.617 262.15 297.365 264.04 294.842L265.661 292.678C268.947 288.293 268.217 282.054 264.011 278.572C260.63 275.772 251.992 274.144 251.992 274.144C251.992 274.144 230.698 268.321 15.7813 265H499.22Z" fill="white"/>
<path d="M257.551 191.348C255.067 193.269 252.85 195.521 250.96 198.044L249.339 200.208C246.054 204.593 246.783 210.832 250.989 214.314C254.371 217.114 258.645 218.674 263.009 218.742C276.73 221.704 284.303 224.565 499.22 227.886H15.7808L153.569 219.611C164.318 218.965 174.928 216.812 185.096 213.213L202.57 207.028C210.559 204.201 217.744 199.428 223.495 193.129C229.099 186.991 231.129 178.324 228.848 170.282L228.43 168.81C227.907 166.966 227.164 165.193 226.219 163.531L205.901 127.806L225.218 149.986C229.984 155.459 236.225 159.394 243.17 161.305C250.154 163.226 257.595 163.34 264.643 161.68C273.877 159.506 282.92 156.09 291.293 151.579L313.3 139.721L415.171 84.4917L257.551 191.348Z" fill="white"/>
</svg>
