<svg width="160" height="70" viewBox="0 0 160 70" fill="none" xmlns="http://www.w3.org/2000/svg">
<path d="M20.1541 53.5054C22.461 53.5054 24.2105 53.9157 25.4026 54.7362C26.5948 55.5413 27.1908 56.7335 27.1908 58.3126V58.5681H25.4258V58.3126C25.4258 56.1761 23.6686 55.1079 20.1541 55.1079C18.544 55.1079 17.3053 55.3324 16.4383 55.7813C15.5713 56.2148 15.1378 56.8496 15.1378 57.6857V57.8946C15.1378 58.5758 15.4165 59.0946 15.9738 59.4506C16.5466 59.8067 17.4911 60.0699 18.8071 60.2402L22.1049 60.6582C23.9937 60.9059 25.3638 61.3472 26.2154 61.9819C27.0669 62.6167 27.4927 63.5302 27.4927 64.7223V64.9546C27.4927 66.3325 26.8733 67.393 25.6348 68.1362C24.4117 68.8793 22.6467 69.2509 20.3399 69.2509C17.9092 69.2509 16.0745 68.8328 14.8359 67.9968C13.5974 67.1608 12.9781 65.9377 12.9781 64.3275V64.072H14.7431V64.3275C14.7431 66.5415 16.6396 67.6485 20.4328 67.6485C22.1668 67.6485 23.475 67.424 24.3575 66.975C25.2555 66.526 25.7045 65.868 25.7045 65.001V64.792C25.7045 64.0179 25.4025 63.445 24.7987 63.0734C24.2104 62.6864 23.1808 62.4077 21.71 62.2374L18.4124 61.8426C15.0372 61.4555 13.3496 60.1628 13.3496 57.9643V57.7321C13.3496 56.4006 13.938 55.3633 15.1146 54.6202C16.3067 53.877 17.9866 53.5054 20.1541 53.5054Z" fill="white"/>
<path d="M46.5665 53.5054C48.1611 53.5054 49.5778 53.7454 50.8163 54.2253C52.0704 54.6898 53.0458 55.34 53.7425 56.176C54.4547 57.0121 54.8108 57.9643 54.8108 59.0326V59.1952H52.9993V59.0326C52.9993 58.3204 52.7128 57.6701 52.14 57.0818C51.5826 56.478 50.8086 56.0057 49.8177 55.6651C48.8424 55.3245 47.7586 55.1543 46.5665 55.1542C45.1266 55.1542 43.8803 55.3943 42.8275 55.8742C41.7747 56.3542 40.9696 57.0509 40.4122 57.9643C39.8549 58.8623 39.5762 59.9228 39.5762 61.1459V61.6336C39.5762 63.5379 40.1877 65.0088 41.4108 66.0461C42.6339 67.0834 44.3525 67.6021 46.5665 67.6021C49.3997 67.6021 51.5594 66.7582 53.0457 65.0707V63.0379L54.8108 62.2902V68.9954H53.2083L53.1154 66.9053C51.5207 68.469 49.3299 69.2509 46.5431 69.2509C44.7472 69.2509 43.1912 68.9412 41.8752 68.3219C40.5592 67.7026 39.5452 66.8201 38.833 65.6744C38.1363 64.5288 37.7879 63.1741 37.7879 61.6104V61.1691C37.7879 59.6364 38.144 58.2894 38.8562 57.1283C39.5839 55.9671 40.6057 55.0769 41.9217 54.4576C43.2532 53.8228 44.8015 53.5054 46.5665 53.5054Z" fill="white"/>
<path d="M33.5653 68.9954H31.777V53.7608H33.5653V68.9954Z" fill="white"/>
<path d="M73.2712 68.9954H71.5061V62.1677H60.6144V68.9954H58.8495V60.5794L60.6144 59.8318V60.5885H71.5061V53.7608H73.2712V68.9954Z" fill="white"/>
<path d="M91.3469 55.3633H84.4958V68.9954H82.7077V55.3633H75.8568V53.7608H91.3469V55.3633Z" fill="white"/>
<path d="M95.699 67.393H107.311V68.9954H93.934V53.7608H95.699V67.393Z" fill="white"/>
<path d="M111.944 68.9954H110.156V53.7608H111.944V68.9954Z" fill="white"/>
<path d="M129.521 66.5338V53.7608H131.239V68.9954H129.497L118.536 56.2225V68.9954H116.817V53.7608H118.559L129.521 66.5338Z" fill="white"/>
<path d="M148.525 55.3633H137.61V60.5653H148.061V62.1677H137.61V67.393H148.525V68.9954H135.845V53.7608H148.525V55.3633Z" fill="white"/>
<path d="M92.7163 36.207L91.1551 36.4086C89.9032 36.5702 88.6779 36.9003 87.5109 37.3902C86.645 37.7537 85.8546 38.2822 85.1825 38.9475L85.0326 39.096C84.7485 39.3772 84.5038 39.6971 84.3054 40.0465C83.8552 40.8394 83.7412 41.7852 83.9897 42.6658L84.0432 42.8558C84.2167 43.4705 84.4629 44.0615 84.7763 44.6155L87.4389 49.3219L84.304 45.6627C83.5638 44.7987 82.5302 44.2528 81.4115 44.135C80.8294 44.0737 80.2412 44.1113 79.6712 44.2462L79.0102 44.4027C77.6402 44.727 76.317 45.2311 75.0739 45.9022L74.6458 46.1334L72.0718 47.7875L47.6938 65.2269L50.8514 62.7716H44.755V61.1691H52.9124L58.8495 56.5526V53.7608H60.6144V55.1801L79.622 40.4005C80.2263 39.9306 80.7681 39.3824 81.2336 38.7698L81.4023 38.5477C81.4212 38.5228 81.4383 38.4964 81.4532 38.4689L81.6279 38.1476C81.9532 37.549 81.7355 36.7945 81.1443 36.4713C81.1104 36.4528 81.0748 36.4375 81.0381 36.426L80.8922 36.38C80.4237 36.2321 79.9295 36.153 79.4392 36.1453C48.5932 35.6646 31.0618 35.2991 0 34.8165H114.848L92.7163 36.207Z" fill="white"/>
<path d="M80.378 24.8263C79.7737 25.2961 79.2319 25.8443 78.7664 26.457L78.5976 26.6791C78.5787 26.704 78.5616 26.7304 78.5466 26.758L78.372 27.0791C78.0467 27.6777 78.2644 28.4323 78.8557 28.7555C78.8895 28.774 78.9252 28.7891 78.9619 28.8007L79.1077 28.8468C79.5762 28.9947 80.0704 29.0738 80.5607 29.0814C111.407 29.5622 128.938 29.9277 160 30.4103H45.1526L67.2837 29.0199L68.8449 28.8183C70.0968 28.6567 71.3221 28.3264 72.4891 27.8366C73.355 27.4731 74.1452 26.9447 74.8174 26.2794L74.9674 26.1308C75.2515 25.8496 75.4962 25.5298 75.6946 25.1804C76.1448 24.3875 76.2588 23.4415 76.0103 22.561L75.9567 22.371C75.7832 21.7563 75.5371 21.1654 75.2237 20.6114L72.561 15.9049L75.696 19.5641C76.4362 20.4281 77.4698 20.974 78.5885 21.0918C79.1706 21.153 79.7586 21.1154 80.3287 20.9804L80.9898 20.8239C82.3598 20.4996 83.6828 19.9956 84.926 19.3244L85.3542 19.0933L87.9281 17.4393L112.306 0L80.378 24.8263Z" fill="white"/>
</svg>
