<svg xmlns="http://www.w3.org/2000/svg" width="0" height="0" style="display:none" aria-hidden="true">
  <symbol id="i-crosshair" viewBox="0 0 24 24" fill="none" stroke="currentColor" stroke-width="1.6" stroke-linecap="round" stroke-linejoin="round">
    <circle cx="12" cy="12" r="8"></circle><path d="M12 2v4M12 18v4M2 12h4M18 12h4"></path><circle cx="12" cy="12" r="1.4" fill="currentColor" stroke="none"></circle>
  </symbol>
  <symbol id="i-search" viewBox="0 0 24 24" fill="none" stroke="currentColor" stroke-width="1.6" stroke-linecap="round" stroke-linejoin="round">
    <circle cx="11" cy="11" r="7"></circle><path d="m20 20-3.2-3.2"></path>
  </symbol>
  <symbol id="i-shield" viewBox="0 0 24 24" fill="none" stroke="currentColor" stroke-width="1.6" stroke-linecap="round" stroke-linejoin="round">
    <path d="M12 3 5 6v5c0 4.2 2.8 7.5 7 9 4.2-1.5 7-4.8 7-9V6l-7-3Z"></path><path d="m9 12 2 2 4-4"></path>
  </symbol>
  <symbol id="i-activity" viewBox="0 0 24 24" fill="none" stroke="currentColor" stroke-width="1.6" stroke-linecap="round" stroke-linejoin="round">
    <path d="M3 12h4l3 7 4-14 3 7h4"></path>
  </symbol>
  <symbol id="i-target" viewBox="0 0 24 24" fill="none" stroke="currentColor" stroke-width="1.6" stroke-linecap="round" stroke-linejoin="round">
    <circle cx="12" cy="12" r="8"></circle><circle cx="12" cy="12" r="4"></circle><circle cx="12" cy="12" r="1" fill="currentColor" stroke="none"></circle>
  </symbol>
  <symbol id="i-user" viewBox="0 0 24 24" fill="none" stroke="currentColor" stroke-width="1.6" stroke-linecap="round" stroke-linejoin="round">
    <circle cx="12" cy="8" r="4"></circle><path d="M5 20c0-3.3 3.1-6 7-6s7 2.7 7 6"></path>
  </symbol>
  <symbol id="i-users" viewBox="0 0 24 24" fill="none" stroke="currentColor" stroke-width="1.6" stroke-linecap="round" stroke-linejoin="round">
    <circle cx="9" cy="8" r="3.4"></circle><path d="M3 19c0-2.8 2.7-5 6-5s6 2.2 6 5"></path><path d="M16 5.2A3.4 3.4 0 0 1 16 11.8M17 14c2.5.4 4 2.3 4 5"></path>
  </symbol>
  <symbol id="i-settings" viewBox="0 0 24 24" fill="none" stroke="currentColor" stroke-width="1.6" stroke-linecap="round" stroke-linejoin="round">
    <circle cx="12" cy="12" r="3"></circle><path d="M12 2v3M12 19v3M4.2 4.2l2.1 2.1M17.7 17.7l2.1 2.1M2 12h3M19 12h3M4.2 19.8l2.1-2.1M17.7 6.3l2.1-2.1"></path>
  </symbol>
  <symbol id="i-trophy" viewBox="0 0 24 24" fill="none" stroke="currentColor" stroke-width="1.6" stroke-linecap="round" stroke-linejoin="round">
    <path d="M7 4h10v5a5 5 0 0 1-10 0V4Z"></path><path d="M7 6H4v1a3 3 0 0 0 3 3M17 6h3v1a3 3 0 0 1-3 3M9 20h6M12 14v6"></path>
  </symbol>
  <symbol id="i-flame" viewBox="0 0 24 24" fill="none" stroke="currentColor" stroke-width="1.6" stroke-linecap="round" stroke-linejoin="round">
    <path d="M12 3c1 3 4 4.5 4 8a4 4 0 0 1-8 0c0-1.2.4-2 1-2.8C9 9.8 10.5 9 11 6c.4.8.7 1.3 1 2"></path>
  </symbol>
  <symbol id="i-clock" viewBox="0 0 24 24" fill="none" stroke="currentColor" stroke-width="1.6" stroke-linecap="round" stroke-linejoin="round">
    <circle cx="12" cy="12" r="8.5"></circle><path d="M12 7.5V12l3 2"></path>
  </symbol>
  <symbol id="i-up" viewBox="0 0 24 24" fill="none" stroke="currentColor" stroke-width="2" stroke-linecap="round" stroke-linejoin="round">
    <path d="M12 19V5M6 11l6-6 6 6"></path>
  </symbol>
  <symbol id="i-down" viewBox="0 0 24 24" fill="none" stroke="currentColor" stroke-width="2" stroke-linecap="round" stroke-linejoin="round">
    <path d="M12 5v14M6 13l6 6 6-6"></path>
  </symbol>
  <symbol id="i-check" viewBox="0 0 24 24" fill="none" stroke="currentColor" stroke-width="2.2" stroke-linecap="round" stroke-linejoin="round">
    <path d="m5 12 5 5 9-11"></path>
  </symbol>
  <symbol id="i-x" viewBox="0 0 24 24" fill="none" stroke="currentColor" stroke-width="1.8" stroke-linecap="round" stroke-linejoin="round">
    <path d="M6 6l12 12M18 6 6 18"></path>
  </symbol>
  <symbol id="i-chevron-down" viewBox="0 0 24 24" fill="none" stroke="currentColor" stroke-width="1.8" stroke-linecap="round" stroke-linejoin="round">
    <path d="m6 9 6 6 6-6"></path>
  </symbol>
  <symbol id="i-chevron-right" viewBox="0 0 24 24" fill="none" stroke="currentColor" stroke-width="1.8" stroke-linecap="round" stroke-linejoin="round">
    <path d="m9 6 6 6-6 6"></path>
  </symbol>
  <symbol id="i-bell" viewBox="0 0 24 24" fill="none" stroke="currentColor" stroke-width="1.6" stroke-linecap="round" stroke-linejoin="round">
    <path d="M6 9a6 6 0 0 1 12 0c0 5 2 6 2 6H4s2-1 2-6M10 20a2 2 0 0 0 4 0"></path>
  </symbol>
  <symbol id="i-filter" viewBox="0 0 24 24" fill="none" stroke="currentColor" stroke-width="1.6" stroke-linecap="round" stroke-linejoin="round">
    <path d="M3 5h18l-7 8v6l-4-2v-4L3 5Z"></path>
  </symbol>
  <symbol id="i-external" viewBox="0 0 24 24" fill="none" stroke="currentColor" stroke-width="1.6" stroke-linecap="round" stroke-linejoin="round">
    <path d="M14 4h6v6M20 4l-9 9M18 14v5a1 1 0 0 1-1 1H5a1 1 0 0 1-1-1V7a1 1 0 0 1 1-1h5"></path>
  </symbol>
  <symbol id="i-grid" viewBox="0 0 24 24" fill="none" stroke="currentColor" stroke-width="1.6" stroke-linecap="round" stroke-linejoin="round">
    <rect x="3" y="3" width="7" height="7" rx="1.5"></rect><rect x="14" y="3" width="7" height="7" rx="1.5"></rect><rect x="3" y="14" width="7" height="7" rx="1.5"></rect><rect x="14" y="14" width="7" height="7" rx="1.5"></rect>
  </symbol>
  <symbol id="i-layers" viewBox="0 0 24 24" fill="none" stroke="currentColor" stroke-width="1.6" stroke-linecap="round" stroke-linejoin="round">
    <path d="m12 3 9 5-9 5-9-5 9-5Z"></path><path d="m3 13 9 5 9-5"></path>
  </symbol>
  <symbol id="i-eye" viewBox="0 0 24 24" fill="none" stroke="currentColor" stroke-width="1.6" stroke-linecap="round" stroke-linejoin="round">
    <path d="M2 12s3.5-7 10-7 10 7 10 7-3.5 7-10 7-10-7-10-7Z"></path><circle cx="12" cy="12" r="3"></circle>
  </symbol>
  <symbol id="i-zap" viewBox="0 0 24 24" fill="none" stroke="currentColor" stroke-width="1.6" stroke-linecap="round" stroke-linejoin="round">
    <path d="M13 2 4 14h7l-1 8 9-12h-7l1-8Z"></path>
  </symbol>
  <symbol id="i-star" viewBox="0 0 24 24" fill="none" stroke="currentColor" stroke-width="1.6" stroke-linecap="round" stroke-linejoin="round">
    <path d="m12 3 2.6 5.5 6 .9-4.3 4.2 1 6L12 17l-5.3 2.6 1-6L3.4 9.4l6-.9L12 3Z"></path>
  </symbol>
  <symbol id="i-info" viewBox="0 0 24 24" fill="none" stroke="currentColor" stroke-width="1.6" stroke-linecap="round" stroke-linejoin="round">
    <circle cx="12" cy="12" r="8.5"></circle><path d="M12 11v5M12 7.6v.1"></path>
  </symbol>
  <symbol id="i-bolt" viewBox="0 0 24 24" fill="none" stroke="currentColor" stroke-width="1.6" stroke-linecap="round" stroke-linejoin="round">
    <path d="M4 4h6l-2 6h4l-8 10 2-8H3l1-8Z"></path>
  </symbol>
  <symbol id="i-swords" viewBox="0 0 24 24" fill="none" stroke="currentColor" stroke-width="1.6" stroke-linecap="round" stroke-linejoin="round">
    <path d="M14.5 14.5 21 21M3 4l8 8M3 4h3l8 8-2 2-8-8V4ZM21 4h-3l-3.5 3.5M16.5 9.5 19 12"></path>
  </symbol>
  <symbol id="i-plus" viewBox="0 0 24 24" fill="none" stroke="currentColor" stroke-width="1.8" stroke-linecap="round" stroke-linejoin="round">
    <path d="M12 5v14M5 12h14"></path>
  </symbol>
  <symbol id="i-palette" viewBox="0 0 24 24" fill="none" stroke="currentColor" stroke-width="1.6" stroke-linecap="round" stroke-linejoin="round">
    <path d="M12 3a9 9 0 1 0 0 18c1.4 0 2-1 2-2 0-1.4-1-1.6-1-3 0-1 .8-2 2-2h1a5 5 0 0 0 5-5c0-3.9-4-6-9-6Z"></path><circle cx="7.5" cy="11.5" r="1" fill="currentColor" stroke="none"></circle><circle cx="11" cy="7.5" r="1" fill="currentColor" stroke="none"></circle><circle cx="15.5" cy="8.5" r="1" fill="currentColor" stroke="none"></circle>
  </symbol>
  <symbol id="i-type" viewBox="0 0 24 24" fill="none" stroke="currentColor" stroke-width="1.6" stroke-linecap="round" stroke-linejoin="round">
    <path d="M4 6V4h16v2M9 20h6M12 4v16"></path>
  </symbol>
  <symbol id="i-ruler" viewBox="0 0 24 24" fill="none" stroke="currentColor" stroke-width="1.6" stroke-linecap="round" stroke-linejoin="round">
    <rect x="2.5" y="8" width="19" height="8" rx="1.5"></rect><path d="M7 8v3M11 8v4M15 8v3M19 8v4"></path>
  </symbol>
  <symbol id="i-box" viewBox="0 0 24 24" fill="none" stroke="currentColor" stroke-width="1.6" stroke-linecap="round" stroke-linejoin="round">
    <path d="m12 3 8 4.5v9L12 21l-8-4.5v-9L12 3Z"></path><path d="m4 7.5 8 4.5 8-4.5M12 12v9"></path>
  </symbol>
  <symbol id="i-steam" viewBox="0 0 24 24" fill="none" stroke="currentColor" stroke-width="1.5" stroke-linecap="round" stroke-linejoin="round">
    <circle cx="12" cy="12" r="9"></circle><circle cx="15.5" cy="9" r="2.6"></circle><circle cx="8" cy="14.5" r="2.3"></circle><path d="m6 14.5 3.5-3.5M10 13l3-2.5"></path>
  </symbol>
  <symbol id="i-faceit" viewBox="0 0 24 24" fill="none" stroke="currentColor" stroke-width="1.7" stroke-linecap="round" stroke-linejoin="round">
    <path d="M3 17c5-7 10.5-9.5 18-9.5C16 9 9 12 6.5 17H3Z" fill="currentColor" stroke="none"></path><path d="M3 17c5-7 10.5-9.5 18-9.5"></path>
  </symbol>
</svg>