<svg width="36" height="36" viewBox="0 0 36 36" fill="none" xmlns="http://www.w3.org/2000/svg">
<path fill-rule="evenodd" clip-rule="evenodd" d="M18 0C27.9411 0 36 8.05887 36 18C36 27.9411 27.9411 36 18 36C8.05887 36 0 27.9411 0 18C0 8.05887 8.05887 0 18 0ZM26.1311 8.40234C26.039 8.40234 26.0392 8.40212 25.9428 8.49777C24.0511 11.4272 22.0669 14.3608 20.1759 17.386H3.71777C3.5291 17.386 3.43389 17.6705 3.62612 17.7627C10.4345 20.319 20.3641 24.1943 25.8499 26.3697C26.0386 26.4655 26.2266 26.2743 26.2266 26.1814V8.59068C26.2266 8.50091 26.1359 8.40724 26.1311 8.40234Z" fill="white"/>
</svg>
