<svg width="36" height="36" viewBox="0 0 36 36" fill="none" xmlns="http://www.w3.org/2000/svg">
<path fill-rule="evenodd" clip-rule="evenodd" d="M18 0C27.9411 0 36 8.05887 36 18C36 27.9411 27.9411 36 18 36C8.05887 36 0 27.9411 0 18C0 8.05887 8.05887 0 18 0ZM11.2224 9.91532C10.4199 9.91532 9.72639 10.4763 9.55999 11.2613L6.72991 24.6207C6.57006 25.3753 7.14632 26.0859 7.91769 26.0859H16.5109L17.4312 21.8245C17.5612 21.2201 17.1002 20.6494 16.482 20.6493H13.6017C13.2903 20.6492 13.0594 20.3603 13.1283 20.0566L15.4311 9.91532H11.2224ZM15.3419 15.013H21.4189C22.0421 15.0132 22.5031 15.5932 22.3644 16.2008L20.1081 26.0859H24.7789C25.5812 26.0857 26.2737 25.5236 26.44 24.7387L29.2701 11.3793C29.4297 10.6249 28.8546 9.91561 28.0836 9.91532H16.4242L15.3419 15.013Z" fill="white"/>
</svg>
