<svg width="36" height="37" viewBox="0 0 36 37" fill="none" xmlns="http://www.w3.org/2000/svg">
<path d="M17.9689 0C8.49661 0 0.736918 7.37048 0 16.7363L9.66426 20.7686C10.4829 20.203 11.4728 19.8734 12.5367 19.8734C12.6327 19.8734 12.7274 19.876 12.8208 19.8812L17.1191 13.5941V13.5058C17.1191 9.72265 20.1692 6.64394 23.9187 6.64394C27.6682 6.64394 30.7183 9.72265 30.7183 13.5058C30.7183 17.289 27.6682 20.369 23.9187 20.369C23.8668 20.369 23.8162 20.3677 23.7643 20.3664L17.6341 24.7789C17.638 24.8606 17.6406 24.9423 17.6406 25.0228C17.6406 27.8641 15.3507 30.1747 12.5367 30.1747C10.0665 30.1747 7.99971 28.3947 7.53265 26.0386L0.620153 23.1545C2.76085 30.7923 9.71486 36.3918 17.9689 36.3918C27.9276 36.3918 36 28.2442 36 18.1959C36 8.14632 27.9276 0 17.9689 0ZM11.2995 27.6093L9.08485 26.6855C9.47666 27.5107 10.1565 28.2009 11.0582 28.5797C13.0069 29.3997 15.2539 28.4668 16.0661 26.4987C16.4592 25.5464 16.4618 24.4955 16.0726 23.5406C15.6834 22.5858 14.9478 21.8411 14.0046 21.4441C13.0665 21.0509 12.0624 21.0652 11.1801 21.4012L13.4687 22.3561C14.9062 22.9607 15.5861 24.6266 14.9867 26.077C14.3886 27.5275 12.737 28.2138 11.2995 27.6093ZM28.4497 13.506C28.4497 10.9851 26.4167 8.93266 23.9192 8.93266C21.4204 8.93266 19.3874 10.9851 19.3874 13.506C19.3874 16.0268 21.4204 18.078 23.9192 18.078C26.4167 18.078 28.4497 16.0268 28.4497 13.506ZM20.5226 13.4982C20.5226 11.6014 22.0471 10.064 23.9257 10.064C25.8056 10.064 27.3301 11.6014 27.3301 13.4982C27.3301 15.395 25.8056 16.9324 23.9257 16.9324C22.0471 16.9324 20.5226 15.395 20.5226 13.4982Z" fill="white"/>
</svg>
