<svg width="28" height="20" viewBox="0 0 28 20" fill="none" xmlns="http://www.w3.org/2000/svg">
<path d="M7.81012 12.3296C7.72632 12.6988 8.00694 13.0501 8.3855 13.0502H11.8873C12.6393 13.0502 13.1995 13.7442 13.041 14.4793L11.9233 19.6591H1.47577C0.538028 19.6591 -0.161755 18.7956 0.0325739 17.8782L3.47274 1.63739C3.67493 0.682907 4.51767 0 5.49334 0H10.6104L7.81012 12.3296Z" fill="white"/>
<path d="M25.9909 0C26.9286 2.9737e-05 27.6284 0.863511 27.4341 1.78088L23.9936 18.022C23.7914 18.9764 22.9489 19.6591 21.9733 19.6591H16.295L19.0394 7.64127C19.2081 6.9025 18.6467 6.19842 17.8889 6.19836H10.5015L11.8173 0H25.9909Z" fill="white"/>
</svg>
