<svg width="101" height="40" viewBox="0 0 101 40" fill="none" xmlns="http://www.w3.org/2000/svg">
<path d="M71.8772 21.3504L58.0264 22.2032L57.0493 22.3268C56.2658 22.426 55.4989 22.6284 54.7685 22.9287C54.2266 23.1517 53.732 23.4758 53.3114 23.8838L53.2175 23.9748C53.0397 24.1472 52.8866 24.3434 52.7624 24.5577C52.4806 25.044 52.4093 25.624 52.5648 26.164L52.5983 26.2805C52.7069 26.6574 52.861 27.0199 53.0571 27.3596L54.7235 30.2457L52.7616 28.0018C52.2982 27.472 51.6514 27.1372 50.9512 27.065C50.5869 27.0274 50.2189 27.0504 49.8621 27.1332L49.4484 27.2292C48.591 27.4281 47.7629 27.7372 46.9849 28.1487L46.717 28.2905L45.106 29.3048L29.849 39.9994L49.8313 24.7748C50.2095 24.4867 50.5486 24.1505 50.8399 23.7748L50.9455 23.6386C50.9574 23.6233 50.9681 23.6072 50.9774 23.5903L51.0867 23.3933C51.2903 23.0262 51.1541 22.5634 50.784 22.3652C50.7628 22.3539 50.7406 22.3446 50.7176 22.3375L50.6263 22.3093C50.3331 22.2186 50.0238 22.1701 49.7169 22.1654C30.412 21.8706 19.44 21.6464 0 21.3504H71.8772Z" fill="white"/>
<path d="M50.3044 15.224C49.9262 15.5122 49.5872 15.8483 49.2958 16.2241L49.1902 16.3603C49.1784 16.3755 49.1677 16.3917 49.1583 16.4087L49.049 16.6056C48.8454 16.9727 48.9817 17.4354 49.3517 17.6336C49.3729 17.6449 49.3952 17.6542 49.4181 17.6613L49.5095 17.6896C49.8027 17.7803 50.112 17.8288 50.4188 17.8335C69.7237 18.1283 80.6957 18.3524 100.136 18.6484H28.2587L42.1094 17.7957L43.0865 17.6721C43.8699 17.573 44.6368 17.3705 45.3672 17.0701C45.9092 16.8472 46.4037 16.5231 46.8244 16.1151L46.9182 16.024C47.096 15.8516 47.2492 15.6555 47.3734 15.4412C47.6551 14.955 47.7265 14.3748 47.5709 13.8348L47.5374 13.7184C47.4288 13.3414 47.2747 12.9791 47.0786 12.6393L45.4122 9.75309L47.3742 11.997C47.8375 12.5269 48.4843 12.8616 49.1845 12.9339C49.5488 12.9714 49.9169 12.9484 50.2736 12.8656L50.6873 12.7697C51.5447 12.5708 52.3728 12.2617 53.1508 11.8501L53.4187 11.7083L55.0297 10.694L70.2867 -0.000488281L50.3044 15.224Z" fill="white"/>
</svg>
